<?xml version="1.0" encoding="UTF-8" standalone="no"?><!DOCTYPE svg PUBLIC "-//W3C//DTD SVG 1.1//EN" "http://www.w3.org/Graphics/SVG/1.1/DTD/svg11.dtd"><svg width="100%" height="100%" viewBox="0 0 200 40" version="1.1" xmlns="http://www.w3.org/2000/svg" xmlns:xlink="http://www.w3.org/1999/xlink" xml:space="preserve" xmlns:serif="http://www.serif.com/" style="fill-rule:evenodd;clip-rule:evenodd;stroke-linejoin:round;stroke-miterlimit:2;"><g><path d="M20.117,40c-6.199,0 -11.101,-1.676 -14.708,-5.029c-3.606,-3.353 -5.409,-8.207 -5.409,-14.562c0,-4.288 0.828,-7.963 2.485,-11.023c1.657,-3.06 4.035,-5.39 7.135,-6.988c3.099,-1.599 6.754,-2.398 10.965,-2.398c1.988,0 3.616,0.146 4.883,0.439c1.267,0.292 2.505,0.672 3.713,1.14c0.897,0.39 1.56,0.585 1.989,0.585c0.35,0 0.672,-0.078 0.965,-0.234c0.292,-0.156 0.497,-0.39 0.614,-0.702l0.175,-0.526l1.93,0l0.351,11.052l-2.223,0c-0.545,-3.041 -1.783,-5.438 -3.713,-7.193c-1.93,-1.754 -4.318,-2.631 -7.164,-2.631c-4.444,0 -7.475,1.881 -9.093,5.643c-1.618,3.762 -2.427,7.983 -2.427,12.661c0,5.497 0.974,9.844 2.924,13.041c1.949,3.197 4.854,4.795 8.713,4.795c1.053,0 1.881,-0.097 2.486,-0.292c0.604,-0.195 1.315,-0.507 2.134,-0.936l0,-9.707c0,-1.014 -0.088,-1.765 -0.263,-2.252c-0.175,-0.487 -0.448,-0.799 -0.819,-0.936c-0.37,-0.136 -0.906,-0.204 -1.608,-0.204l-0.877,0l0,-1.93l16.959,0l0,1.93l-1.053,0c-0.818,0 -1.452,0.243 -1.9,0.731c-0.449,0.487 -0.673,1.374 -0.673,2.661l0,12.163l-1.93,0c-0.273,-0.351 -0.565,-0.614 -0.877,-0.789c-0.312,-0.176 -0.78,-0.263 -1.403,-0.263c-0.312,0 -1.014,0.136 -2.106,0.409c-1.598,0.39 -3.167,0.711 -4.707,0.965c-1.54,0.253 -3.363,0.38 -5.468,0.38Z" style="fill:#fff;fill-rule:nonzero;"/><path d="M43.041,37.368c1.325,0 2.251,-0.078 2.778,-0.233c0.526,-0.156 0.867,-0.439 1.023,-0.848c0.156,-0.41 0.234,-1.141 0.234,-2.193l0,-28.129c0,-1.014 -0.088,-1.745 -0.263,-2.193c-0.176,-0.448 -0.536,-0.751 -1.082,-0.907c-0.546,-0.155 -1.443,-0.233 -2.69,-0.233l0,-1.93l17.953,0c5.224,0 9.064,0.809 11.521,2.427c2.456,1.618 3.684,3.967 3.684,7.046c0,2.807 -0.916,5.01 -2.749,6.609c-1.832,1.598 -4.23,2.631 -7.193,3.099l0,0.117c2.378,0.39 4.104,1.14 5.176,2.251c1.072,1.112 1.881,2.993 2.427,5.644l0.701,3.275c0.351,1.676 0.702,2.933 1.053,3.772c0.351,0.838 0.848,1.452 1.491,1.842c0.644,0.389 1.569,0.584 2.778,0.584l0,1.93l-11.52,0c-0.546,-0.39 -1.073,-1.091 -1.579,-2.105c-0.507,-1.014 -0.897,-2.105 -1.17,-3.275l-1.754,-8.07c-0.312,-1.482 -0.78,-2.593 -1.404,-3.333c-0.624,-0.741 -1.598,-1.111 -2.924,-1.111l-2.397,0l0,12.69c0,1.013 0.087,1.734 0.263,2.163c0.175,0.429 0.516,0.722 1.023,0.878c0.507,0.155 1.345,0.233 2.515,0.233l0,1.93l-17.895,0l0,-1.93Zm15.731,-18.304c2.612,0 4.522,-0.643 5.731,-1.929c1.209,-1.287 1.813,-3.373 1.813,-6.258c0,-2.729 -0.556,-4.746 -1.667,-6.052c-1.111,-1.306 -2.895,-1.96 -5.351,-1.96c-0.896,0 -1.481,0.127 -1.754,0.381c-0.273,0.253 -0.409,0.809 -0.409,1.666l0,14.152l1.637,0Z" style="fill:#fff;fill-rule:nonzero;"/><path d="M100.819,39.883c-6.355,0 -11.258,-1.715 -14.708,-5.146c-3.45,-3.431 -5.175,-8.363 -5.175,-14.795c0,-6.433 1.725,-11.365 5.175,-14.796c3.45,-3.431 8.353,-5.146 14.708,-5.146c6.354,0 11.257,1.715 14.707,5.146c3.451,3.431 5.176,8.363 5.176,14.796c0,6.432 -1.725,11.364 -5.176,14.795c-3.45,3.431 -8.353,5.146 -14.707,5.146Zm0,-1.93c3.431,0 5.838,-1.452 7.222,-4.357c1.384,-2.904 2.076,-7.456 2.076,-13.654c0,-6.043 -2.742,-15.216 -9.298,-18.012c-6.454,2.915 -9.299,11.813 -9.299,18.012c0,6.198 0.692,10.75 2.076,13.654c1.385,2.905 3.792,4.357 7.223,4.357Z" style="fill:#fff;fill-rule:nonzero;"/><path d="M124.854,5.556c-0.351,-1.092 -0.79,-1.852 -1.316,-2.281c-0.526,-0.429 -1.433,-0.643 -2.719,-0.643l0,-1.93l18.421,0l0,1.93l-2.222,0c-0.663,0 -1.141,0.107 -1.433,0.321c-0.293,0.215 -0.439,0.575 -0.439,1.082c0,0.351 0.059,0.76 0.176,1.228l5.789,20.585l0.117,0l7.836,-24.328l6.667,0l7.485,23.86l0.117,0l5.263,-20c0.117,-0.468 0.176,-0.877 0.176,-1.228c0,-0.546 -0.176,-0.936 -0.526,-1.17c-0.351,-0.233 -0.936,-0.35 -1.755,-0.35l-2.105,0l0,-1.93l10.76,0l0,1.93c-0.858,0 -1.53,0.107 -2.017,0.321c-0.488,0.215 -0.917,0.663 -1.287,1.345c-0.37,0.683 -0.75,1.745 -1.14,3.187l-8.714,31.813l-4.678,0l-9.006,-28.479l-0.117,0l-9.123,28.479l-4.386,0l-9.824,-33.742Z" style="fill:#fff;fill-rule:nonzero;"/></g><path d="M98.863,37.953l1.956,-33.422l2.417,33.422c-0.808,0.171 -3.565,0.184 -4.373,0Z" style="fill:#fff;"/></svg>